HIERARCHY
ROOT Hips
{
	OFFSET 0.000000 100.481300 0.000000
	CHANNELS 6 Xposition Yposition Zposition Xrotation Yrotation Zrotation
	JOINT Spine
	{
		OFFSET -0.279200 12.230698 -2.892100
		CHANNELS 3 Xrotation Yrotation Zrotation
		JOINT Spine1
		{
			OFFSET -0.325700 14.269203 -3.374200
			CHANNELS 3 Xrotation Yrotation Zrotation
			JOINT Spine2
			{
				OFFSET -0.372300 16.307602 -0.352600
				CHANNELS 3 Xrotation Yrotation Zrotation
				JOINT Neck
				{
					OFFSET -0.418800 17.814194 8.416900
					CHANNELS 3 Xrotation Yrotation Zrotation
					JOINT Head
					{
						OFFSET 0.000000 7.031097 3.806800
						CHANNELS 3 Xrotation Yrotation Zrotation
						JOINT HeadTop_End
						{
							OFFSET 0.000000 24.646606 12.978600
							CHANNELS 3 Xrotation Yrotation Zrotation
							End Site
							{
								OFFSET 0.000000 27.854965 0.000000
							}
						}
					}
				}
				JOINT LeftShoulder
				{
					OFFSET 16.952999 14.495407 -7.737500
					CHANNELS 3 Xrotation Yrotation Zrotation
					JOINT LeftArm
					{
						OFFSET 9.308998 -2.777710 0.208600
						CHANNELS 3 Xrotation Yrotation Zrotation
						JOINT LeftForeArm
						{
							OFFSET 29.972298 0.000000 0.000000
							CHANNELS 3 Xrotation Yrotation Zrotation
							JOINT LeftHand
							{
								OFFSET 26.026505 0.000000 0.000000
								CHANNELS 3 Xrotation Yrotation Zrotation
								JOINT LeftHandThumb1
								{
									OFFSET 12.240501 -7.147949 9.207150
									CHANNELS 3 Xrotation Yrotation Zrotation
									JOINT LeftHandThumb2
									{
										OFFSET 4.138618 -2.389435 2.389433
										CHANNELS 3 Xrotation Yrotation Zrotation
										JOINT LeftHandThumb3
										{
											OFFSET 2.726913 -1.574387 1.574386
											CHANNELS 3 Xrotation Yrotation Zrotation
											JOINT LeftHandThumb4
											{
												OFFSET 3.941010 -2.275345 2.275342
												CHANNELS 3 Xrotation Yrotation Zrotation
												End Site
												{
													OFFSET -0.005798 5.087799 0.009903
												}
											}
										}
									}
								}
								JOINT LeftHandIndex1
								{
									OFFSET 24.424698 -1.985611 5.953459
									CHANNELS 3 Xrotation Yrotation Zrotation
									JOINT LeftHandIndex2
									{
										OFFSET 6.426697 0.000000 0.000000
										CHANNELS 3 Xrotation Yrotation Zrotation
										JOINT LeftHandIndex3
										{
											OFFSET 5.337898 0.000000 0.000000
											CHANNELS 3 Xrotation Yrotation Zrotation
											JOINT LeftHandIndex4
											{
												OFFSET 4.409401 0.000000 0.000000
												CHANNELS 3 Xrotation Yrotation Zrotation
												End Site
												{
													OFFSET 0.000000 4.409363 0.014373
												}
											}
										}
									}
								}
								JOINT LeftHandMiddle1
								{
									OFFSET 23.810104 0.000000 0.000000
									CHANNELS 3 Xrotation Yrotation Zrotation
									JOINT LeftHandMiddle2
									{
										OFFSET 7.176498 0.000000 0.000000
										CHANNELS 3 Xrotation Yrotation Zrotation
										JOINT LeftHandMiddle3
										{
											OFFSET 6.774902 0.000000 0.000000
											CHANNELS 3 Xrotation Yrotation Zrotation
											JOINT LeftHandMiddle4
											{
												OFFSET 5.403328 0.000000 0.000000
												CHANNELS 3 Xrotation Yrotation Zrotation
												End Site
												{
													OFFSET -0.027702 5.403244 0.017414
												}
											}
										}
									}
								}
								JOINT LeftHandRing1
								{
									OFFSET 22.908401 -0.839279 -6.020567
									CHANNELS 3 Xrotation Yrotation Zrotation
									JOINT LeftHandRing2
									{
										OFFSET 6.337502 0.000000 0.000000
										CHANNELS 3 Xrotation Yrotation Zrotation
										JOINT LeftHandRing3
										{
											OFFSET 5.779297 0.000000 0.000000
											CHANNELS 3 Xrotation Yrotation Zrotation
											JOINT LeftHandRing4
											{
												OFFSET 4.965698 0.000000 0.000000
												CHANNELS 3 Xrotation Yrotation Zrotation
												End Site
												{
													OFFSET 0.000000 4.965668 0.016186
												}
											}
										}
									}
								}
								JOINT LeftHandPinky1
								{
									OFFSET 20.037003 -1.530319 -10.950146
									CHANNELS 3 Xrotation Yrotation Zrotation
									JOINT LeftHandPinky2
									{
										OFFSET 5.254700 0.000000 0.000000
										CHANNELS 3 Xrotation Yrotation Zrotation
										JOINT LeftHandPinky3
										{
											OFFSET 4.810204 0.000000 0.000000
											CHANNELS 3 Xrotation Yrotation Zrotation
											JOINT LeftHandPinky4
											{
												OFFSET 3.647202 0.000000 0.000000
												CHANNELS 3 Xrotation Yrotation Zrotation
												End Site
												{
													OFFSET 0.000000 3.647186 0.011889
												}
											}
										}
									}
								}
							}
						}
					}
				}
				JOINT RightShoulder
				{
					OFFSET -15.141001 14.495407 -7.737500
					CHANNELS 3 Xrotation Yrotation Zrotation
					JOINT RightArm
					{
						OFFSET -9.308998 -2.777710 0.208500
						CHANNELS 3 Xrotation Yrotation Zrotation
						JOINT RightForeArm
						{
							OFFSET -29.972300 0.000000 0.000000
							CHANNELS 3 Xrotation Yrotation Zrotation
							JOINT RightHand
							{
								OFFSET -26.026505 0.000000 0.000000
								CHANNELS 3 Xrotation Yrotation Zrotation
								JOINT RightHandThumb1
								{
									OFFSET -12.240601 -7.148026 9.207092
									CHANNELS 3 Xrotation Yrotation Zrotation
									JOINT RightHandThumb2
									{
										OFFSET -4.138618 -2.389435 2.389433
										CHANNELS 3 Xrotation Yrotation Zrotation
										JOINT RightHandThumb3
										{
											OFFSET -2.726974 -1.574417 1.574421
											CHANNELS 3 Xrotation Yrotation Zrotation
											JOINT RightHandThumb4
											{
												OFFSET -3.941010 -2.275345 2.275343
												CHANNELS 3 Xrotation Yrotation Zrotation
												End Site
												{
													OFFSET 0.005814 5.087799 0.009927
												}
											}
										}
									}
								}
								JOINT RightHandIndex1
								{
									OFFSET -24.424698 -1.985657 5.953444
									CHANNELS 3 Xrotation Yrotation Zrotation
									JOINT RightHandIndex2
									{
										OFFSET -6.426697 0.000000 0.000000
										CHANNELS 3 Xrotation Yrotation Zrotation
										JOINT RightHandIndex3
										{
											OFFSET -5.337898 0.000000 0.000000
											CHANNELS 3 Xrotation Yrotation Zrotation
											JOINT RightHandIndex4
											{
												OFFSET -4.409401 0.000000 0.000000
												CHANNELS 3 Xrotation Yrotation Zrotation
												End Site
												{
													OFFSET 0.000000 4.409363 0.014408
												}
											}
										}
									}
								}
								JOINT RightHandMiddle1
								{
									OFFSET -23.810097 0.000000 0.000000
									CHANNELS 3 Xrotation Yrotation Zrotation
									JOINT RightHandMiddle2
									{
										OFFSET -7.176498 0.000000 0.000000
										CHANNELS 3 Xrotation Yrotation Zrotation
										JOINT RightHandMiddle3
										{
											OFFSET -6.774902 0.000000 0.000000
											CHANNELS 3 Xrotation Yrotation Zrotation
											JOINT RightHandMiddle4
											{
												OFFSET -5.403328 0.000000 0.000000
												CHANNELS 3 Xrotation Yrotation Zrotation
												End Site
												{
													OFFSET 0.027702 5.403244 0.017457
												}
											}
										}
									}
								}
								JOINT RightHandRing1
								{
									OFFSET -22.908302 -0.839325 -6.020576
									CHANNELS 3 Xrotation Yrotation Zrotation
									JOINT RightHandRing2
									{
										OFFSET -6.337502 0.000000 0.000000
										CHANNELS 3 Xrotation Yrotation Zrotation
										JOINT RightHandRing3
										{
											OFFSET -5.779297 0.000000 0.000000
											CHANNELS 3 Xrotation Yrotation Zrotation
											JOINT RightHandRing4
											{
												OFFSET -4.965698 0.000000 0.000000
												CHANNELS 3 Xrotation Yrotation Zrotation
												End Site
												{
													OFFSET 0.000000 4.965668 0.016226
												}
											}
										}
									}
								}
								JOINT RightHandPinky1
								{
									OFFSET -20.037003 -1.530334 -10.950259
									CHANNELS 3 Xrotation Yrotation Zrotation
									JOINT RightHandPinky2
									{
										OFFSET -5.254700 0.000000 0.000000
										CHANNELS 3 Xrotation Yrotation Zrotation
										JOINT RightHandPinky3
										{
											OFFSET -4.810204 0.000000 0.000000
											CHANNELS 3 Xrotation Yrotation Zrotation
											JOINT RightHandPinky4
											{
												OFFSET -3.647202 0.000000 0.000000
												CHANNELS 3 Xrotation Yrotation Zrotation
												End Site
												{
													OFFSET 0.000000 3.647186 0.011917
												}
											}
										}
									}
								}
							}
						}
					}
				}
			}
		}
	}
	JOINT LeftUpLeg
	{
		OFFSET 15.427100 -6.655098 0.678600
		CHANNELS 3 Xrotation Yrotation Zrotation
		JOINT LeftLeg
		{
			OFFSET 4.081073 -39.591068 13.024000
			CHANNELS 3 Xrotation Yrotation Zrotation
			JOINT LeftFoot
			{
				OFFSET -4.081074 -37.707932 -15.979700
				CHANNELS 3 Xrotation Yrotation Zrotation
				JOINT LeftToeBase
				{
					OFFSET 5.346399 -15.068900 20.645000
					CHANNELS 3 Xrotation Yrotation Zrotation
					JOINT LeftToe_End
					{
						OFFSET 2.754700 0.931300 11.300900
						CHANNELS 3 Xrotation Yrotation Zrotation
						End Site
						{
							OFFSET 0.000000 11.669021 0.000000
						}
					}
				}
			}
		}
	}
	JOINT RightUpLeg
	{
		OFFSET -15.569500 -6.655098 0.678600
		CHANNELS 3 Xrotation Yrotation Zrotation
		JOINT RightLeg
		{
			OFFSET -4.081825 -39.591045 13.023800
			CHANNELS 3 Xrotation Yrotation Zrotation
			JOINT RightFoot
			{
				OFFSET 4.081824 -37.707954 -15.979600
				CHANNELS 3 Xrotation Yrotation Zrotation
				JOINT RightToeBase
				{
					OFFSET -5.346400 -15.068900 20.645000
					CHANNELS 3 Xrotation Yrotation Zrotation
					JOINT RightToe_End
					{
						OFFSET -2.754700 0.931300 11.300900
						CHANNELS 3 Xrotation Yrotation Zrotation
						End Site
						{
							OFFSET 0.000000 11.669021 0.000000
						}
					}
				}
			}
		}
	}
}
MOTION
Frames: 4
Frame Time: 0.033333
1.108177 26.997307 3.142670 -25.981107 -10.976131 -0.859007 15.126974 4.542560 1.490265 30.557792 -0.069007 -4.590180 30.557788 -0.069008 -4.590178 -12.876657 2.914203 0.332323 -22.232052 0.002737 0.004235 0.000002 -0.000000 -0.000000 -3.457538 -13.935158 -5.823541 -22.901358 -12.949624 -46.896116 -4.864179 -108.592119 1.134474 59.366836 -29.351597 -19.650434 26.762133 3.647595 -4.425085 -0.320535 9.159717 0.869346 0.000003 -0.000008 0.000005 0.000000 0.000003 -0.000000 -0.442641 8.931289 -28.558317 3.013078 -1.095118 -36.780541 -0.000005 0.000003 -0.000001 0.000001 0.000001 -0.000001 -0.894543 8.463637 -42.451535 -1.048901 -3.112413 -35.323621 0.000005 0.000003 -0.000001 -0.000002 -0.000002 -0.000001 1.114059 3.515191 -44.495759 -4.518008 -5.213007 -46.088959 0.000006 0.000003 0.000003 0.000002 0.000001 0.000000 -0.394545 4.592279 -43.282540 -5.339258 -6.622013 -54.707117 -0.000003 -0.000001 -0.000002 -0.000003 -0.000000 -0.000001 -3.442801 13.907513 5.670588 -19.429262 38.263194 55.768426 -1.222422 51.210498 0.338490 18.221401 0.608907 -10.837296 3.052689 -10.480397 -2.381317 -0.990523 -7.944618 -1.554557 0.000008 -0.000008 -0.000006 0.000000 -0.000000 0.000000 4.408575 0.621653 50.463367 -9.369471 -6.376567 62.767813 -0.000003 0.000013 -0.000004 0.000001 0.000001 -0.000000 -6.130617 -3.071406 58.445123 -12.517228 -15.600712 55.738920 -0.000001 -0.000002 0.000001 0.000000 0.000001 -0.000000 -8.318801 0.604635 69.543900 -6.823814 6.312120 68.418654 0.000001 0.000006 -0.000011 0.000001 0.000001 0.000001 -10.696173 4.517948 73.533222 -13.800696 8.686480 110.186565 -0.000001 0.000001 -0.000002 0.000003 0.000002 -0.000001 -81.336823 -0.746710 30.263817 125.735463 -7.234790 -5.806965 -18.327694 -0.227286 12.093353 0.002979 -0.026201 0.062606 -0.000000 0.000000 -0.000000 47.826118 -32.677817 -122.499388 -6.429060 17.152598 148.589031 2.635887 32.165912 -32.965286 -43.268962 0.562233 -1.441414 -0.000000 -0.000001 -0.000001 
1.547433 26.807076 3.207722 -27.941173 -10.743903 -1.669138 15.347276 4.338621 1.754129 30.995651 0.038970 -4.241237 30.995638 0.038969 -4.241236 -11.022607 2.906370 0.461993 -23.844170 0.220078 -0.819959 -0.000001 0.000000 -0.000000 -3.502100 -15.286086 -6.262524 -22.635520 -12.119755 -46.620126 -4.674289 -109.120229 1.259034 59.961575 -30.745950 -17.804118 25.889523 4.299613 -4.669580 -0.414043 8.950758 0.826596 -0.000001 -0.000002 0.000003 -0.000002 -0.000001 0.000000 -0.322772 8.673597 -29.122895 3.018885 -1.087053 -36.557420 -0.000000 0.000003 -0.000002 0.000002 -0.000001 -0.000001 -0.964119 8.099818 -42.250761 -1.082011 -3.105778 -36.014737 -0.000000 0.000004 0.000001 0.000007 0.000000 -0.000000 0.659324 3.250832 -44.157706 -4.599250 -5.169513 -47.246782 0.000002 0.000001 0.000001 0.000004 -0.000000 -0.000002 -0.777601 4.228596 -43.352177 -5.380840 -6.596631 -55.658327 -0.000002 -0.000001 -0.000002 0.000001 -0.000000 -0.000001 -3.443400 13.861007 5.719617 -18.695887 37.553237 54.755294 -1.308112 53.895319 0.430300 21.580273 0.686411 -12.678005 2.756403 -9.975082 -2.475713 -1.237324 -7.420316 -1.501371 0.000007 -0.000010 -0.000009 0.000000 0.000001 -0.000004 4.408562 0.621655 50.463364 -9.369459 -6.376589 62.767813 -0.000001 0.000013 -0.000007 0.000001 0.000001 -0.000001 -6.130626 -3.071396 58.445130 -12.517226 -15.600714 55.738903 -0.000000 0.000000 0.000000 0.000001 -0.000002 0.000000 -8.318790 0.604644 69.543907 -6.823810 6.312115 68.418647 0.000002 0.000005 -0.000011 -0.000003 -0.000001 -0.000001 -10.696180 4.517952 73.533236 -13.800688 8.686472 110.186558 -0.000003 -0.000002 -0.000002 0.000001 -0.000003 -0.000002 -75.170467 -2.955553 35.909252 124.092188 -14.997803 -11.243614 -19.085907 -1.259963 17.295374 -0.383922 -0.024979 0.199984 -0.000000 0.000000 -0.000000 45.806162 -31.101485 -126.809237 -5.289468 20.209785 146.744593 2.758933 33.535645 -28.283294 -43.051410 0.555250 -1.433559 -0.000001 0.000000 -0.000000 
1.995569 26.620125 3.198505 -29.941432 -10.487175 -2.468175 15.573507 4.147192 1.988898 31.443189 0.149373 -3.881358 31.443186 0.149373 -3.881358 -9.133519 2.898678 0.599226 -25.469569 0.448546 -1.668550 -0.000000 0.000000 0.000000 -3.545218 -16.670755 -6.710322 -22.432810 -11.300748 -46.351136 -4.500761 -109.611361 1.366490 60.599617 -32.186102 -15.899270 24.999283 4.964086 -4.906013 -0.509324 8.737897 0.782729 0.000001 -0.000004 0.000006 0.000001 0.000000 0.000001 -0.205963 8.409603 -29.696617 3.024758 -1.078831 -36.330049 0.000002 0.000003 -0.000001 -0.000005 -0.000001 -0.000000 -1.032319 7.728672 -42.045610 -1.115077 -3.098734 -36.718858 -0.000002 0.000003 -0.000001 0.000001 -0.000000 0.000000 0.198883 2.976631 -43.816514 -4.680059 -5.123838 -48.426308 0.000003 0.000001 0.000001 -0.000001 -0.000001 -0.000001 -1.169453 3.859786 -43.425516 -5.421987 -6.570416 -56.627377 -0.000000 -0.000003 -0.000001 0.000000 -0.000003 -0.000002 -3.444068 13.819493 5.770561 -18.096994 36.914020 53.775865 -1.397945 56.390715 0.527369 24.655608 0.549127 -14.314140 2.455326 -9.458379 -2.568416 -1.489597 -6.885122 -1.444843 0.000004 -0.000009 -0.000002 -0.000000 -0.000002 0.000002 4.408576 0.621656 50.463364 -9.369466 -6.376583 62.767813 -0.000004 0.000012 -0.000003 0.000000 0.000000 -0.000000 -6.130619 -3.071413 58.445116 -12.517208 -15.600729 55.738913 -0.000000 0.000001 -0.000000 -0.000000 -0.000001 -0.000000 -8.318804 0.604640 69.543893 -6.823825 6.312123 68.418647 0.000002 0.000007 -0.000010 -0.000001 0.000000 0.000001 -10.696171 4.517951 73.533216 -13.800683 8.686468 110.186545 0.000000 -0.000002 -0.000001 -0.000000 -0.000002 -0.000001 -64.416477 -4.422736 46.168578 119.157049 -26.805661 -21.240300 -19.567935 -4.746056 26.231823 -0.796939 -0.025562 0.349258 0.000000 0.000001 0.000000 44.007677 -29.237383 -131.037166 -3.907454 23.265649 144.776173 3.108237 35.081569 -23.643012 -42.816120 0.547686 -1.425035 0.000000 0.000001 -0.000000 
2.423608 26.451172 3.118256 -31.843254 -10.229976 -3.190362 15.788382 3.981277 2.181721 31.867115 0.257283 -3.544588 31.867112 0.257280 -3.544588 -7.314326 2.890712 0.721298 -27.049518 0.654224 -2.468572 0.000001 0.000000 0.000000 -3.582829 -17.985987 -7.129794 -22.310782 -10.549277 -46.142555 -4.335746 -110.096215 1.465735 61.196364 -33.584894 -14.170446 24.139582 5.602883 -5.125900 -0.601080 8.532979 0.740169 0.000002 -0.000005 0.000007 0.000001 -0.000000 0.000000 -0.098599 8.154057 -30.247646 3.030412 -1.070880 -36.111138 -0.000003 0.000005 -0.000003 -0.000001 -0.000000 -0.000002 -1.095402 7.370881 -41.847480 -1.146219 -3.091700 -37.396884 -0.000003 0.000004 -0.000002 -0.000003 0.000000 0.000001 -0.241735 2.707993 -43.491110 -4.756008 -5.078579 -49.561905 0.000000 0.000001 0.000001 0.000002 -0.000001 -0.000000 -1.548271 3.506370 -43.498411 -5.460443 -6.544910 -57.560340 0.000001 -0.000001 -0.000001 0.000001 -0.000000 -0.000001 -3.444573 13.767956 5.817622 -17.669582 36.356151 52.912652 -1.491173 58.623049 0.628554 26.511444 -0.097925 -15.065167 2.158790 -8.946407 -2.656495 -1.739475 -6.355713 -1.386711 0.000007 -0.000008 -0.000010 -0.000002 0.000000 -0.000001 4.408569 0.621660 50.463360 -9.369484 -6.376586 62.767820 -0.000004 0.000013 -0.000006 0.000001 0.000000 -0.000004 -6.130613 -3.071409 58.445136 -12.517222 -15.600716 55.738910 -0.000002 -0.000002 -0.000003 -0.000000 -0.000001 -0.000001 -8.318808 0.604657 69.543893 -6.823826 6.312126 68.418647 -0.000001 0.000008 -0.000011 0.000002 0.000000 -0.000001 -10.696170 4.517964 73.533236 -13.800704 8.686495 110.186551 0.000000 0.000001 -0.000000 0.000001 0.000001 -0.000001 -49.684517 -1.807383 57.006217 108.932597 -39.078664 -36.587469 -19.739112 -10.180709 37.751378 -1.157614 -0.027721 0.474587 0.000000 0.000001 0.000000 41.515686 -27.167434 -136.433384 -2.506286 25.870154 142.958537 4.422601 36.589347 -18.596035 -42.566323 0.539702 -1.415951 0.000001 0.000000 0.000000 
